kick coordinate motion generated from LLM joint_angles
version=1
nRows=27
nColumns=36
inDegrees=yes
endheader
time	pelvis_tilt	pelvis_list	pelvis_rotation	pelvis_tx	pelvis_ty	pelvis_tz	hip_flexion_r	hip_adduction_r	hip_rotation_r	knee_angle_r	knee_angle_r_beta	ankle_angle_r	subtalar_angle_r	mtp_angle_r	hip_flexion_l	hip_adduction_l	hip_rotation_l	knee_angle_l	knee_angle_l_beta	ankle_angle_l	subtalar_angle_l	mtp_angle_l	lumbar_extension	lumbar_bending	lumbar_rotation	arm_flex_r	arm_add_r	arm_rot_r	elbow_flex_r	pro_sup_r	arm_flex_l	arm_add_l	arm_rot_l	elbow_flex_l	pro_sup_l
0.000000	0.000000	0.000000	0.000000	0.000000	0.000000	0.000000	0.000000	0.000000	0.000000	0.000000	0.000000	0.000000	0.000000	0.000000	0.000000	0.000000	0.000000	0.000000	0.000000	0.000000	0.000000	0.000000	0.000000	0.000000	0.000000	0.000000	0.000000	0.000000	0.000000	0.000000	0.000000	0.000000	0.000000	0.000000	0.000000
0.006667	0.209424	0.104712	0.104712	0.000000	0.000000	0.000000	1.884818	0.000000	0.000000	2.513090	0.000000	1.884818	0.209424	0.418848	0.000000	0.000000	0.000000	0.000000	0.000000	0.000000	0.000000	0.000000	0.000000	0.000000	0.000000	0.000000	0.000000	0.000000	0.000000	0.000000	0.000000	0.000000	0.000000	0.000000	0.000000
0.013333	0.418757	0.209378	0.209378	0.000000	0.000000	0.000000	3.768809	0.000000	0.000000	5.025078	0.000000	3.768809	0.418757	0.837513	0.000000	0.000000	0.000000	0.000000	0.000000	0.000000	0.000000	0.000000	0.000000	0.000000	0.000000	0.000000	0.000000	0.000000	0.000000	0.000000	0.000000	0.000000	0.000000	0.000000	0.000000
0.020000	0.627905	0.313953	0.313953	0.000000	0.000000	0.000000	5.651147	0.000000	0.000000	7.534862	0.000000	5.651147	0.627905	1.255810	0.000000	0.000000	0.000000	0.000000	0.000000	0.000000	0.000000	0.000000	0.000000	0.000000	0.000000	0.000000	0.000000	0.000000	0.000000	0.000000	0.000000	0.000000	0.000000	0.000000	0.000000
0.026667	0.836778	0.418389	0.418389	0.000000	0.000000	0.000000	7.531006	0.000000	0.000000	10.041341	0.000000	7.531006	0.836778	1.673557	0.000000	0.000000	0.000000	0.000000	0.000000	0.000000	0.000000	0.000000	0.000000	0.000000	0.000000	0.000000	0.000000	0.000000	0.000000	0.000000	0.000000	0.000000	0.000000	0.000000	0.000000
0.033333	1.045285	0.522642	0.522642	0.000000	0.000000	0.000000	9.407562	0.000000	0.000000	12.543416	0.000000	9.407562	1.045285	2.090569	0.000000	0.000000	0.000000	0.000000	0.000000	0.000000	0.000000	0.000000	0.000000	0.000000	0.000000	0.000000	0.000000	0.000000	0.000000	0.000000	0.000000	0.000000	0.000000	0.000000	0.000000
0.040000	1.253332	0.626666	0.626666	0.000000	0.000000	0.000000	11.279991	0.000000	0.000000	15.039988	0.000000	11.279991	1.253332	2.506665	0.000000	0.000000	0.000000	0.000000	0.000000	0.000000	0.000000	0.000000	0.000000	0.000000	0.000000	0.000000	0.000000	0.000000	0.000000	0.000000	0.000000	0.000000	0.000000	0.000000	0.000000
0.046667	1.460830	0.730415	0.730415	0.000000	0.000000	0.000000	13.147473	0.000000	0.000000	17.529963	0.000000	13.147473	1.460830	2.921661	0.000000	0.000000	0.000000	0.000000	0.000000	0.000000	0.000000	0.000000	0.000000	0.000000	0.000000	0.000000	0.000000	0.000000	0.000000	0.000000	0.000000	0.000000	0.000000	0.000000	0.000000
0.053333	1.667687	0.833844	0.833844	0.000000	0.000000	0.000000	15.009187	0.000000	0.000000	20.012250	0.000000	15.009187	1.667687	3.335375	0.000000	0.000000	0.000000	0.000000	0.000000	0.000000	0.000000	0.000000	0.000000	0.000000	0.000000	0.000000	0.000000	0.000000	0.000000	0.000000	0.000000	0.000000	0.000000	0.000000	0.000000
0.060000	1.873813	0.936907	0.936907	0.000000	0.000000	0.000000	16.864318	0.000000	0.000000	22.485758	0.000000	16.864318	1.873813	3.747626	0.000000	0.000000	0.000000	0.000000	0.000000	0.000000	0.000000	0.000000	0.000000	0.000000	0.000000	0.000000	0.000000	0.000000	0.000000	0.000000	0.000000	0.000000	0.000000	0.000000	0.000000
0.066667	2.079117	1.039558	1.039558	0.000000	0.000000	0.000000	18.712052	0.000000	0.000000	24.949403	0.000000	18.712052	2.079117	4.158234	0.000000	0.000000	0.000000	0.000000	0.000000	0.000000	0.000000	0.000000	0.000000	0.000000	0.000000	0.000000	0.000000	0.000000	0.000000	0.000000	0.000000	0.000000	0.000000	0.000000	0.000000
0.073333	2.283509	1.141754	1.141754	0.000000	0.000000	0.000000	20.551578	0.000000	0.000000	27.402104	0.000000	20.551578	2.283509	4.567017	0.000000	0.000000	0.000000	0.000000	0.000000	0.000000	0.000000	0.000000	0.000000	0.000000	0.000000	0.000000	0.000000	0.000000	0.000000	0.000000	0.000000	0.000000	0.000000	0.000000	0.000000
0.080000	2.486899	1.243449	1.243449	0.000000	0.000000	0.000000	22.382090	0.000000	0.000000	29.842786	0.000000	22.382090	2.486899	4.973798	0.000000	0.000000	0.000000	0.000000	0.000000	0.000000	0.000000	0.000000	0.000000	0.000000	0.000000	0.000000	0.000000	0.000000	0.000000	0.000000	0.000000	0.000000	0.000000	0.000000	0.000000
0.086667	2.689198	1.344599	1.344599	0.000000	0.000000	0.000000	24.202784	0.000000	0.000000	32.270378	0.000000	24.202784	2.689198	5.378396	0.000000	0.000000	0.000000	0.000000	0.000000	0.000000	0.000000	0.000000	0.000000	0.000000	0.000000	0.000000	0.000000	0.000000	0.000000	0.000000	0.000000	0.000000	0.000000	0.000000	0.000000
0.093333	2.890318	1.445159	1.445159	0.000000	0.000000	0.000000	26.012862	0.000000	0.000000	34.683816	0.000000	26.012862	2.890318	5.780636	0.000000	0.000000	0.000000	0.000000	0.000000	0.000000	0.000000	0.000000	0.000000	0.000000	0.000000	0.000000	0.000000	0.000000	0.000000	0.000000	0.000000	0.000000	0.000000	0.000000	0.000000
0.100000	3.090170	1.545085	1.545085	0.000000	0.000000	0.000000	27.811529	0.000000	0.000000	37.082039	0.000000	27.811529	3.090170	6.180340	0.000000	0.000000	0.000000	0.000000	0.000000	0.000000	0.000000	0.000000	0.000000	0.000000	0.000000	0.000000	0.000000	0.000000	0.000000	0.000000	0.000000	0.000000	0.000000	0.000000	0.000000
0.106667	3.288666	1.644333	1.644333	0.000000	0.000000	0.000000	29.597998	0.000000	0.000000	39.463998	0.000000	29.597998	3.288666	6.577333	0.000000	0.000000	0.000000	0.000000	0.000000	0.000000	0.000000	0.000000	0.000000	0.000000	0.000000	0.000000	0.000000	0.000000	0.000000	0.000000	0.000000	0.000000	0.000000	0.000000	0.000000
0.113333	3.485720	1.742860	1.742860	0.000000	0.000000	0.000000	31.371484	0.000000	0.000000	41.828646	0.000000	31.371484	3.485720	6.971441	0.000000	0.000000	0.000000	0.000000	0.000000	0.000000	0.000000	0.000000	0.000000	0.000000	0.000000	0.000000	0.000000	0.000000	0.000000	0.000000	0.000000	0.000000	0.000000	0.000000	0.000000
0.120000	3.681246	1.840623	1.840623	0.000000	0.000000	0.000000	33.131210	0.000000	0.000000	44.174946	0.000000	33.131210	3.681246	7.362491	0.000000	0.000000	0.000000	0.000000	0.000000	0.000000	0.000000	0.000000	0.000000	0.000000	0.000000	0.000000	0.000000	0.000000	0.000000	0.000000	0.000000	0.000000	0.000000	0.000000	0.000000
0.126667	3.875156	1.937578	1.937578	0.000000	0.000000	0.000000	34.876403	0.000000	0.000000	46.501870	0.000000	34.876403	3.875156	7.750312	0.000000	0.000000	0.000000	0.000000	0.000000	0.000000	0.000000	0.000000	0.000000	0.000000	0.000000	0.000000	0.000000	0.000000	0.000000	0.000000	0.000000	0.000000	0.000000	0.000000	0.000000
0.133333	4.067366	2.033683	2.033683	0.000000	0.000000	0.000000	36.606298	0.000000	0.000000	48.808397	0.000000	36.606298	4.067366	8.134733	0.000000	0.000000	0.000000	0.000000	0.000000	0.000000	0.000000	0.000000	0.000000	0.000000	0.000000	0.000000	0.000000	0.000000	0.000000	0.000000	0.000000	0.000000	0.000000	0.000000	0.000000
0.140000	4.257793	2.128896	2.128896	0.000000	0.000000	0.000000	38.320136	0.000000	0.000000	51.093515	0.000000	38.320136	4.257793	8.515586	0.000000	0.000000	0.000000	0.000000	0.000000	0.000000	0.000000	0.000000	0.000000	0.000000	0.000000	0.000000	0.000000	0.000000	0.000000	0.000000	0.000000	0.000000	0.000000	0.000000	0.000000
0.146667	4.446352	2.223176	2.223176	0.000000	0.000000	0.000000	40.017166	0.000000	0.000000	53.356222	0.000000	40.017166	4.446352	8.892704	0.000000	0.000000	0.000000	0.000000	0.000000	0.000000	0.000000	0.000000	0.000000	0.000000	0.000000	0.000000	0.000000	0.000000	0.000000	0.000000	0.000000	0.000000	0.000000	0.000000	0.000000
0.153333	4.632960	2.316480	2.316480	0.000000	0.000000	0.000000	41.696643	0.000000	0.000000	55.595524	0.000000	41.696643	4.632960	9.265921	0.000000	0.000000	0.000000	0.000000	0.000000	0.000000	0.000000	0.000000	0.000000	0.000000	0.000000	0.000000	0.000000	0.000000	0.000000	0.000000	0.000000	0.000000	0.000000	0.000000	0.000000
0.160000	4.817537	2.408768	2.408768	0.000000	0.000000	0.000000	43.357831	0.000000	0.000000	57.810441	0.000000	43.357831	4.817537	9.635073	0.000000	0.000000	0.000000	0.000000	0.000000	0.000000	0.000000	0.000000	0.000000	0.000000	0.000000	0.000000	0.000000	0.000000	0.000000	0.000000	0.000000	0.000000	0.000000	0.000000	0.000000
0.166667	5.000000	2.500000	2.500000	0.000000	0.000000	0.000000	45.000000	0.000000	0.000000	60.000000	0.000000	45.000000	5.000000	10.000000	0.000000	0.000000	0.000000	0.000000	0.000000	0.000000	0.000000	0.000000	0.000000	0.000000	0.000000	0.000000	0.000000	0.000000	0.000000	0.000000	0.000000	0.000000	0.000000	0.000000	0.000000
0.173333	5.180270	2.590135	2.590135	0.000000	0.000000	0.000000	46.622431	0.000000	0.000000	62.163241	0.000000	46.622431	5.180270	10.360540	0.000000	0.000000	0.000000	0.000000	0.000000	0.000000	0.000000	0.000000	0.000000	0.000000	0.000000	0.000000	0.000000	0.000000	0.000000	0.000000	0.000000	0.000000	0.000000	0.000000	0.000000
